<mxfile host="app.diagrams.net" modified="2023-06-14T04:22:23.452Z" agent="Mozilla/5.0 (X11; Linux x86_64) AppleWebKit/537.36 (KHTML, like Gecko) Chrome/114.0.0.0 Safari/537.36" version="21.3.8" etag="Zn9aEdofPcC_TFtDTptY" type="github">
  <diagram name="Page-1" id="92tR54vbwpCNJssJHLXe">
    <mxGraphModel>
      <root>
        <mxCell id="0" />
        <mxCell id="1" parent="0" />
      </root>
    </mxGraphModel>
  </diagram>
</mxfile>
